<svg width="1000" height="1000" viewBox="0 0 1000 1000" fill="none" xmlns="http://www.w3.org/2000/svg">
<rect width="1000" height="1000" rx="150" fill="#FACC15"/>
<path d="M522.368 343.917C522.368 301.991 488.375 268 446.446 268C404.511 268 370.525 301.991 370.525 343.917C370.525 385.85 404.511 419.834 446.446 419.834C488.375 419.834 522.368 385.85 522.368 343.917Z" fill="#231F20"/>
<path d="M332.474 412.167C275.879 412.167 230 458.043 230 514.635C230 571.22 275.879 617.096 332.474 617.096C389.062 617.096 434.941 571.22 434.941 514.635C434.941 458.043 389.062 412.167 332.474 412.167Z" fill="#231F20"/>
<path d="M613.641 416.771C526.805 416.771 456.41 487.161 456.41 573.993C456.41 660.818 526.805 731.209 613.641 731.209C700.478 731.209 770.873 660.818 770.873 573.993C770.873 487.161 700.478 416.771 613.641 416.771Z" fill="#231F20"/>
</svg>
